<svg width="15pt" height="9pt" viewBox="0 0 15 9" xmlns="http://www.w3.org/2000/svg"><g stroke-linecap="round" fill-rule="evenodd" fill="#0051d9"><path d="M 5.04 1.68 L 1.68 1.68 L 1.68 6.72 L 5.04 6.72 L 5.04 8.4 L 0 8.4 L 0 0 L 5.04 0 L 5.04 1.68 Z M 9.12 1.68 L 9.12 0 L 14.16 0 L 14.16 3.36 L 12.48 3.36 L 12.48 1.68 L 9.12 1.68 Z M 10.8 5.04 L 9.12 5.04 L 9.12 8.4 L 14.16 8.4 L 14.16 6.72 L 10.8 6.72 L 10.8 5.04 Z M 5.04 6.72 L 5.04 1.68 L 6.72 1.68 L 6.72 6.72 L 5.04 6.72 Z M 12.48 3.36 L 10.8 3.36 L 10.8 5.04 L 12.48 5.04 L 12.48 3.36 Z" vector-effect="non-scaling-stroke"/></g></svg>